<svg version="1.1" id="Layer_1" xmlns="http://www.w3.org/2000/svg" xmlns:xlink="http://www.w3.org/1999/xlink" x="0px" y="0px"
	 width="100%" viewBox="0 0 1024 1024" enable-background="new 0 0 1024 1024" xml:space="preserve">
<path fill="#000000" opacity="1.000000" stroke="none" 
	d="
M349.563538,592.432495 
	C341.586243,586.184814 333.818298,580.232605 326.076324,574.246765 
	C323.727325,572.430603 321.541260,570.450989 320.065887,566.698914 
	C325.430817,568.368774 328.420166,565.631287 331.464722,562.753052 
	C334.581299,559.806763 337.284698,561.433289 339.625275,564.007812 
	C346.903351,572.013306 355.654236,578.014954 365.294586,582.739990 
	C380.523651,590.204163 395.981750,596.733521 412.687927,600.720703 
	C432.157990,605.367554 451.691010,606.957031 471.556061,607.170776 
	C489.888153,607.367981 508.192871,607.432495 526.057190,602.796326 
	C541.331787,598.832275 557.369873,597.768494 571.930542,591.158752 
	C582.665771,586.285583 593.396301,581.434021 604.512817,577.487183 
	C606.487488,576.786133 608.348328,575.559998 611.210266,575.929077 
	C604.364685,581.338196 597.027649,584.861267 589.540161,587.910583 
	C577.385376,592.860596 565.581055,598.775391 552.639587,601.676514 
	C548.476868,602.609680 545.080017,604.775879 542.919189,608.840454 
	C540.825500,612.778687 536.910339,614.354919 532.709473,615.347656 
	C518.290588,618.754883 503.496918,618.949829 488.928772,620.748169 
	C465.622589,623.625061 442.177277,621.444031 419.004395,624.726685 
	C417.100677,624.996338 414.606537,624.478394 413.693573,626.715027 
	C412.653046,629.264343 414.931580,630.712952 416.501801,632.039185 
	C422.199310,636.851196 425.890839,643.028809 429.887939,649.236877 
	C435.502502,657.956970 441.776825,666.609802 452.193420,670.586609 
	C455.878784,671.993530 459.653473,672.205811 463.497131,671.340698 
	C471.062775,669.637817 478.672546,669.591919 486.352020,670.495361 
	C492.535309,671.222717 498.219086,669.159241 503.670654,666.579834 
	C509.230225,663.949280 514.834900,662.325073 521.041077,663.817871 
	C522.463013,664.159851 524.063293,664.149597 525.516541,663.908936 
	C535.598511,662.239441 545.421143,663.598633 555.140259,666.275879 
	C558.516602,667.205994 561.835449,666.432190 565.014465,665.648865 
	C571.103088,664.148621 576.430481,665.867676 579.766235,670.557800 
	C584.963867,677.865784 592.502441,680.162659 600.350891,681.439392 
	C611.603760,683.269897 622.317688,687.094360 634.045044,687.568420 
	C652.060974,688.296692 665.637756,703.673340 666.992615,721.910156 
	C667.216064,724.917236 667.402649,727.917969 668.654236,730.697327 
	C670.923218,735.735718 675.367554,737.737793 680.106812,735.049866 
	C689.858948,729.519043 700.533508,725.395264 707.407288,715.497925 
	C710.894531,710.476685 716.328857,707.108643 723.532043,705.272827 
	C720.111023,710.332031 722.314453,714.342163 724.433350,718.440247 
	C725.392517,720.295410 724.773010,722.346375 724.490173,724.334534 
	C722.376465,739.192871 728.033386,750.357117 741.311829,757.401672 
	C749.408203,761.697083 757.981018,764.910217 766.474487,768.311096 
	C773.084290,770.957703 776.432678,775.149231 776.077454,779.722595 
	C775.632507,785.452393 770.984680,789.869751 764.003784,791.330383 
	C749.395142,794.387146 734.798828,790.059448 727.548035,776.423767 
	C727.250366,775.863892 726.704163,775.436218 726.350037,775.033691 
	C724.846436,775.075439 724.483765,776.060791 724.378174,777.049622 
	C723.614990,784.194763 724.034607,791.359863 724.174866,798.514648 
	C724.229858,801.320190 726.509033,802.338196 728.771484,803.154175 
	C742.285583,808.028625 755.961914,811.098267 770.285583,806.823792 
	C774.404480,805.594604 776.247986,807.012512 776.043762,811.410767 
	C775.827209,816.072998 774.959106,820.366699 771.039062,823.416626 
	C767.882019,825.872864 766.443420,828.984131 766.992615,833.014709 
	C767.478882,836.583252 765.904907,839.124573 762.799866,840.804321 
	C752.427734,846.415527 742.472351,853.088562 730.001709,853.230286 
	C728.384766,853.248718 726.608215,853.679382 725.190674,854.446289 
	C715.736938,859.560669 705.327576,859.351074 695.081421,860.037048 
	C691.360046,860.286133 687.869934,861.061035 684.663879,863.091370 
	C679.028503,866.660217 673.419189,866.907776 667.166504,863.985596 
	C652.377502,857.073975 637.389893,857.590881 622.830750,864.742737 
	C614.720886,868.726624 607.154236,869.271423 599.079651,864.666260 
	C593.175049,861.298706 586.563965,861.370728 579.745239,861.254761 
	C569.677490,861.083435 560.084778,860.665527 550.134216,864.051025 
	C543.657776,866.254578 537.303040,861.472046 532.901550,856.045837 
	C528.243286,850.303101 522.353638,848.077698 515.249268,849.104248 
	C510.253448,849.826111 505.386993,849.787231 500.361908,849.140564 
	C493.203156,848.219177 486.059753,849.287781 479.096222,851.146667 
	C472.562958,852.890625 466.172241,853.989624 459.528015,851.249878 
	C456.838440,850.140808 453.669586,850.057373 450.693604,849.804138 
	C440.513428,848.938049 430.645111,846.862671 421.052765,843.248413 
	C413.569702,840.428955 405.499542,842.455627 397.804626,841.001099 
	C386.290924,838.824707 374.684479,839.658081 363.609802,842.619507 
	C344.953125,847.608582 326.500977,847.759644 307.777893,843.766296 
	C304.394592,843.044617 300.806549,842.895325 297.336914,843.042969 
	C289.035645,843.396240 281.153839,841.421082 273.222839,839.438293 
	C265.708649,837.559753 258.014038,837.791565 250.345901,837.985535 
	C236.190582,838.343628 225.421814,833.008972 219.386169,819.656067 
	C215.306885,810.631287 207.782104,804.316528 201.438278,797.097168 
	C198.587204,793.852661 195.451965,793.727295 192.067139,797.213196 
	C187.978683,801.423523 184.299606,805.857300 181.118454,810.782959 
	C178.041534,815.547363 176.014771,815.725098 171.216736,812.877747 
	C160.639374,806.600891 152.944809,797.102478 146.212006,787.466980 
	C139.762405,778.236572 140.353165,766.569336 142.880020,755.569885 
	C144.990875,746.381165 148.645981,738.215759 157.935745,733.818237 
	C161.346573,732.203613 163.191589,728.833862 164.824844,725.483337 
	C167.654953,719.677368 171.274582,715.661560 178.146652,713.266235 
	C188.950043,709.500549 195.947464,700.241455 202.176178,690.839966 
	C202.766495,689.948975 202.948486,688.576233 202.846481,687.470825 
	C201.963058,677.898682 207.634476,671.822083 214.320404,666.568665 
	C217.863998,663.784424 219.719772,660.819031 220.182114,656.226990 
	C221.268906,645.432556 228.098526,638.229187 236.577820,632.330322 
	C239.569199,630.249268 242.862473,628.630737 245.296524,625.737793 
	C246.682632,624.090393 248.845871,624.023865 250.889404,624.532410 
	C255.490677,625.677612 259.717743,624.849792 263.921478,622.702576 
	C266.566895,621.351379 269.620544,620.825195 272.365295,619.638123 
	C281.612213,615.638916 290.109955,617.592346 297.785980,623.256348 
	C306.739349,629.862793 315.263000,636.971680 321.937103,646.105286 
	C328.417023,654.973022 337.182129,659.304993 348.394135,657.795654 
	C351.762390,657.342285 355.048035,656.440186 357.476166,654.033813 
	C366.299744,645.289368 376.622162,639.302979 388.582397,635.884644 
	C393.382507,634.512695 397.621735,631.823914 401.478943,628.476013 
	C404.368042,625.968445 404.042664,624.191956 401.234314,622.180420 
	C396.977051,619.131042 392.039703,617.518372 387.237579,615.674011 
	C382.853210,613.990173 378.584625,612.157471 374.922821,609.177246 
	C372.235626,606.990234 369.019012,605.678040 365.789764,605.410828 
	C359.647400,604.902771 355.792725,601.621582 352.776947,596.714783 
	C351.908569,595.301880 350.787903,594.044006 349.563538,592.432495 
M339.065613,815.153259 
	C351.416626,816.100891 360.994385,810.593567 368.762299,801.587769 
	C370.263367,803.093079 369.976959,804.315002 370.054901,805.442200 
	C370.523895,812.222534 371.181671,812.992676 377.804535,812.822144 
	C384.790039,812.642273 391.768860,812.182739 398.748352,811.803711 
	C400.734589,811.695801 402.935120,811.749634 403.512421,809.156006 
	C403.998566,806.971741 402.608826,805.786499 400.945129,804.782593 
	C398.276886,803.172485 396.487305,800.930908 395.534241,797.887390 
	C394.222260,793.697632 393.766266,789.440796 393.799225,785.085449 
	C394.080322,747.933350 394.351990,710.781128 394.615662,673.628845 
	C394.687042,663.574768 394.667175,663.324768 384.817902,663.438721 
	C378.946350,663.506592 372.995850,662.154724 367.036133,663.689453 
	C372.655701,679.306152 369.779999,694.884399 369.933624,710.499695 
	C366.094055,710.378479 364.136902,708.641052 362.164246,707.243469 
	C354.070953,701.509216 345.103180,700.858459 335.866852,702.837646 
	C324.824554,705.203674 316.408386,712.494141 309.209778,720.326660 
	C302.379700,727.758301 300.818756,738.687866 299.827698,748.123230 
	C298.511566,760.654114 299.212189,773.763123 302.558014,786.290405 
	C307.637512,805.308533 319.442596,814.781128 339.065613,815.153259 
M227.417130,678.978394 
	C222.460281,682.346191 217.433701,685.617310 212.573624,689.119446 
	C209.814011,691.108093 209.058380,693.573181 211.018646,696.907166 
	C212.491867,699.412842 213.758118,702.184937 213.568497,705.374817 
	C213.384918,708.463074 214.826279,710.953186 217.611816,712.294189 
	C220.510742,713.689819 223.041870,712.552307 225.426376,710.646240 
	C232.190887,705.238892 239.012268,699.902100 245.849457,694.586609 
	C247.220490,693.520752 248.431152,691.865051 251.225220,692.776855 
	C250.114288,704.687256 251.517044,716.835632 248.441437,728.765686 
	C246.163834,737.600342 242.961823,746.451782 242.445770,755.426514 
	C241.644302,769.365845 239.174332,783.513062 244.443237,797.394714 
	C246.663391,803.244080 240.620911,808.358459 234.419464,806.809692 
	C232.814941,806.408997 231.042953,804.156372 229.545227,806.378845 
	C228.118240,808.496338 229.847122,810.454895 230.865845,812.350037 
	C232.337982,815.088684 234.780304,815.782654 237.610458,815.654236 
	C245.258850,815.307373 252.910736,815.008850 260.551910,814.539246 
	C268.361420,814.059326 276.162354,813.429382 283.961365,812.795349 
	C285.816528,812.644470 287.764954,812.174133 288.352203,810.105591 
	C288.932281,808.062195 287.216278,807.084595 285.796448,806.288452 
	C280.047821,803.065186 277.858826,797.692688 277.789795,791.655457 
	C277.551788,770.832031 277.728485,750.010620 278.268219,729.183899 
	C278.807617,708.368652 278.554626,687.533020 278.654388,666.706299 
	C278.664093,664.682556 278.043274,662.750671 275.895020,662.556519 
	C269.987701,662.022583 264.040314,660.605591 258.118622,662.053467 
	C246.631165,664.862183 237.968689,672.917847 227.417130,678.978394 
M414.319366,749.957397 
	C414.309662,756.452454 413.952515,762.970520 414.382202,769.436401 
	C414.869141,776.763123 416.381592,784.033936 420.215424,790.412781 
	C430.000580,806.693481 444.591187,814.515625 463.537323,813.636963 
	C475.259857,813.093323 486.156464,809.990479 494.942688,801.469177 
	C502.021088,794.604065 502.081268,794.169861 495.453613,786.732544 
	C493.637360,784.694336 492.199860,783.685242 489.721527,785.850037 
	C484.014343,790.835449 477.221680,792.676270 469.703064,793.601013 
	C454.243134,795.502625 446.388092,790.973999 441.959778,776.110413 
	C441.014221,772.936584 440.358093,769.655701 439.835297,766.381531 
	C438.993713,761.111023 439.859772,760.167664 445.128387,760.036194 
	C460.776489,759.645569 476.424164,759.233704 492.073151,758.882874 
	C505.913361,758.572571 504.837006,759.274414 504.663300,745.929260 
	C504.291748,717.391846 485.795959,698.491394 457.226929,698.548889 
	C447.080536,698.569275 435.773438,697.967590 429.819031,709.343689 
	C427.704681,713.383301 422.982452,715.619141 421.957153,720.103577 
	C419.731934,729.835999 415.303986,738.987183 414.319366,749.957397 
M550.694519,738.662842 
	C548.535522,731.320190 546.393250,723.972595 544.209167,716.637390 
	C543.341064,713.721680 543.467773,711.067444 545.764893,708.779114 
	C546.952698,707.595825 548.221313,706.308167 547.462891,704.427002 
	C546.630981,702.363403 544.662231,702.210510 542.823547,702.209717 
	C534.161804,702.206177 525.499573,702.240479 516.838745,702.356995 
	C515.229126,702.378662 513.450012,702.513184 512.681580,704.643982 
	C513.676147,707.377869 516.377869,709.200684 517.082886,712.245911 
	C519.076477,720.856812 522.406372,729.068298 524.902832,737.517334 
	C528.854004,750.889587 532.796570,764.287720 536.574951,777.702698 
	C539.217102,787.083679 543.139099,796.456665 546.991943,805.635437 
	C548.247986,808.627625 550.746460,809.752625 553.813721,809.751953 
	C557.978455,809.750977 562.143188,809.652649 566.307983,809.603455 
	C575.078064,809.499878 575.944641,808.760803 578.833069,800.505371 
	C587.794434,774.893738 596.743774,749.276917 605.936157,723.747986 
	C607.763794,718.672119 608.947388,713.111816 613.369568,709.261841 
	C614.827759,707.992310 616.910706,706.673645 616.164673,704.393738 
	C615.383240,702.005615 612.792114,701.612549 610.736694,701.523376 
	C604.915894,701.270874 599.077026,701.324219 593.247986,701.421204 
	C590.188354,701.472046 586.995728,700.692322 584.010681,702.228027 
	C584.103149,704.679016 585.692749,706.028076 586.895325,707.572693 
	C589.032837,710.318115 589.943542,713.623779 588.044067,716.429382 
	C584.217346,722.081787 584.326294,728.704895 582.542297,734.848450 
	C579.339783,745.876892 576.078857,756.890381 572.659119,767.852966 
	C570.905701,773.473572 569.216064,779.166626 565.284424,785.805481 
	C560.194153,769.413147 555.540588,754.427185 550.694519,738.662842 
M679.709167,817.014221 
	C685.534058,816.916687 691.358887,816.814514 697.183899,816.724182 
	C699.210327,816.692627 701.233826,816.727783 702.282715,814.459412 
	C705.371887,807.778564 701.917969,800.638000 694.644348,799.311646 
	C687.592957,798.025757 680.381714,798.330139 673.291016,798.621155 
	C657.017029,799.289185 640.759521,800.092102 624.465515,799.498169 
	C622.731628,799.434998 620.740356,799.196899 619.722229,801.580383 
	C621.902588,803.876221 623.590637,806.179443 622.699890,809.896301 
	C621.178101,816.245667 624.403381,819.870850 630.894287,819.555847 
	C646.851868,818.781555 662.803833,817.891174 679.709167,817.014221 
M210.614532,759.772705 
	C212.209427,756.860413 212.226456,753.693665 212.023758,750.519714 
	C211.777878,746.669678 209.809448,743.845398 206.247787,742.508667 
	C202.722275,741.185547 199.736542,742.688110 197.215210,745.190186 
	C192.743988,749.627319 191.748856,761.017334 195.269150,766.303467 
	C196.685608,768.430542 198.451599,768.994629 200.847977,768.213867 
	C205.017639,766.855164 208.040817,764.160095 210.614532,759.772705 
z"/>
<path fill="#000000" opacity="1.000000" stroke="none" 
	d="
M532.065552,445.008118 
	C517.387634,419.338593 494.416870,404.833893 468.032196,394.610962 
	C459.759552,391.405640 451.095856,389.738953 442.574402,387.503296 
	C439.424652,386.676910 436.092773,386.765350 433.223236,388.065186 
	C425.834290,391.412292 417.738831,391.782715 410.127747,394.084381 
	C407.484955,394.883606 406.067688,394.451294 405.405548,391.607880 
	C404.681824,388.499756 402.707825,386.418854 399.634857,385.235779 
	C377.458160,376.698120 357.614594,364.453308 340.481689,347.901184 
	C338.405731,345.895569 336.296509,343.723297 332.713684,343.522125 
	C332.797333,348.036438 334.854034,351.746674 335.066010,355.938324 
	C336.287506,380.094116 334.778107,404.189819 333.926056,428.299194 
	C333.831329,430.978973 334.368927,434.950531 331.346680,435.771057 
	C327.822510,436.727905 324.850494,433.933167 322.391022,431.322113 
	C321.410461,430.281067 321.493195,428.376404 318.954010,427.777802 
	C315.623749,436.434296 317.965271,446.152740 314.590851,454.826263 
	C312.193939,454.261871 312.865051,452.422668 312.783752,451.167328 
	C311.555786,432.197205 311.606232,413.231781 312.475128,394.233765 
	C312.884491,385.283112 312.062988,376.274414 311.749695,367.293762 
	C311.678192,365.244904 310.669983,363.471527 309.739410,361.694519 
	C304.332336,351.369049 310.769867,340.879761 322.478546,340.927063 
	C329.291931,340.954590 332.918427,338.026733 334.506256,331.311829 
	C335.015015,329.160278 334.462830,327.478363 332.950195,325.861420 
	C316.893585,308.697357 311.723511,287.606567 310.976105,264.897430 
	C310.252899,242.924011 310.869476,220.947357 310.659027,198.973923 
	C310.588898,191.651825 310.181488,184.288757 308.686188,177.116547 
	C305.990326,164.186157 297.424438,156.647018 285.041473,153.387772 
	C277.665894,151.446518 270.116180,150.127945 262.602142,148.764114 
	C256.578491,147.670807 250.881393,147.331207 246.394012,153.234909 
	C243.507889,157.031982 234.520050,157.328278 230.506134,154.685150 
	C227.075897,152.426376 226.355148,148.394394 228.270386,144.591034 
	C231.055939,139.059448 235.599457,134.930542 239.366394,130.195877 
	C242.559921,126.181961 246.331589,122.633537 249.733124,118.778275 
	C254.459808,113.421059 261.100464,111.376900 267.254028,108.514084 
	C269.945007,107.262161 271.320435,109.042496 270.857483,111.369621 
	C269.981293,115.774399 271.350800,119.976677 271.389740,124.283905 
	C271.447266,130.652252 274.621857,133.888824 280.948853,135.054276 
	C289.615479,136.650681 298.296112,138.213409 306.892639,140.139175 
	C323.483368,143.855774 333.833862,157.183136 334.171936,176.069672 
	C334.511810,195.056931 334.051056,214.057190 334.125549,233.051025 
	C334.177734,246.358170 333.045441,259.768402 335.371033,272.932526 
	C337.048096,282.425385 341.093323,291.269043 345.550903,299.851746 
	C359.487518,326.685608 384.119690,340.146576 410.226166,351.867554 
	C434.960632,362.972504 460.589020,371.822601 485.698883,381.982300 
	C502.443085,388.757233 518.539978,396.769562 532.721130,407.778351 
	C543.615356,416.235535 552.499451,427.031555 558.205872,439.945526 
	C570.595825,467.984985 568.493713,495.545258 555.122192,522.599548 
	C553.219666,526.448975 550.418274,529.851624 548.068176,533.483826 
	C547.391113,534.530273 546.083862,535.404968 547.137634,537.512817 
	C552.683899,536.541199 556.816895,532.885864 560.881775,529.404968 
	C581.294861,511.924805 592.130371,489.179871 596.690186,463.127502 
	C600.228699,442.910583 600.323242,422.708740 595.563354,402.643646 
	C594.551270,398.377441 595.019714,395.091644 599.433899,393.151123 
	C601.624390,392.188202 603.182617,390.350525 604.629517,388.541229 
	C606.670898,385.988617 608.534790,384.095093 612.453613,384.465424 
	C615.788269,384.780518 616.947327,381.335815 617.472717,378.527649 
	C620.260010,363.629974 623.144409,348.730316 622.882629,333.467285 
	C622.612854,317.741058 620.346313,302.339264 615.371948,287.367371 
	C614.696167,285.333344 614.427246,283.136719 614.182190,280.991150 
	C611.506165,257.561584 603.954163,235.678589 592.988647,214.936646 
	C587.172974,203.935944 584.453125,202.432190 572.205566,204.500931 
	C564.345215,205.828629 556.700989,203.911057 548.920959,204.261688 
	C544.208984,204.474045 539.435791,203.116379 534.579224,204.009750 
	C531.392639,204.595963 528.195312,203.707504 525.378296,202.230545 
	C513.724121,196.120209 500.608093,193.340729 489.212738,186.835129 
	C470.765808,176.303772 451.609741,178.175400 432.139832,182.200516 
	C431.488129,182.335251 430.820343,182.713684 430.202789,182.636490 
	C427.468018,182.294617 423.977844,182.979965 422.440155,180.385284 
	C421.045532,178.032074 423.913544,176.176132 425.289154,174.508652 
	C439.179077,157.672012 456.875854,148.333847 478.927277,148.114120 
	C500.654205,147.897598 520.946228,153.875198 540.600159,162.654449 
	C550.243469,166.962036 558.839111,172.940826 567.625671,178.644165 
	C571.346680,181.059448 574.065979,184.385941 576.338745,188.129700 
	C577.265198,189.655869 577.897522,191.507385 581.125427,191.819412 
	C576.578125,175.657425 567.382263,163.092606 556.119324,151.663528 
	C544.845093,140.222992 531.520630,132.018219 516.114441,125.930450 
	C523.640015,118.896568 531.851929,116.377899 541.198730,117.808418 
	C566.732666,121.716385 591.152100,129.155853 614.040833,141.292084 
	C615.456543,142.042725 617.197876,142.476028 618.181519,145.145157 
	C605.631775,140.177765 594.420471,133.684738 582.057861,130.014603 
	C569.704163,126.347107 557.406128,122.522476 544.157959,122.021301 
	C550.391663,124.847542 555.580444,129.070160 561.123108,132.763901 
	C583.473389,147.658615 600.653442,167.250061 613.934631,190.367828 
	C628.546936,215.802567 639.044495,242.953613 644.644226,271.696686 
	C647.139832,284.506805 648.566406,297.624939 649.601990,310.759735 
	C651.000977,328.503296 651.812988,346.260559 651.328003,363.984833 
	C650.399719,397.904510 645.380127,431.286224 634.244080,463.478699 
	C626.731445,485.196686 615.744873,505.034912 600.982727,522.820679 
	C585.978516,540.898071 568.463318,555.568237 547.069275,565.497925 
	C530.280823,573.290039 512.743103,577.931763 494.252869,579.321838 
	C483.430359,580.135498 472.666962,581.006897 461.902924,579.026001 
	C459.509583,578.585571 456.961639,578.422607 454.946442,576.459229 
	C456.310120,573.081909 459.139984,573.774231 461.372406,574.007507 
	C477.659485,575.709595 493.547546,574.088257 509.129089,569.008545 
	C528.229858,562.781555 545.684265,553.883423 559.277100,538.627197 
	C560.745667,536.978882 565.053528,535.897705 562.692200,533.181030 
	C560.383911,530.525391 557.987549,534.161865 556.121277,535.618530 
	C547.181763,542.595886 536.325378,543.827698 525.808044,546.055969 
	C523.921509,546.455566 521.592041,546.526978 520.497986,544.323059 
	C519.295044,541.899719 520.346191,539.781616 522.068787,537.995422 
	C526.461182,533.440918 530.721802,528.841187 533.796936,523.189026 
	C542.307739,507.546143 542.980957,490.804199 541.387573,473.623413 
	C540.445740,463.468384 536.863342,454.253143 532.065552,445.008118 
z"/>
<path fill="#000000" opacity="1.000000" stroke="none" 
	d="
M835.179199,751.060181 
	C836.817078,755.458069 835.055969,758.965027 833.241577,762.319763 
	C828.401611,771.269348 822.483154,779.489502 815.518250,786.903015 
	C811.726929,790.938477 807.007568,793.384399 801.303833,793.014954 
	C798.213745,792.814758 795.605591,794.712341 792.588074,794.712952 
	C791.258362,792.629517 792.864685,791.149475 793.451904,789.558105 
	C795.966125,782.744507 797.385132,775.884705 795.845581,768.556152 
	C794.410217,761.723267 791.245667,756.257996 785.450562,752.174744 
	C778.403870,747.209656 770.269470,744.663940 762.535583,741.211609 
	C759.805054,739.992859 757.099670,738.670776 754.530701,737.146545 
	C748.260559,733.426575 745.987549,727.907837 747.705261,721.066284 
	C749.230164,714.992737 755.000916,710.455994 761.874756,710.583618 
	C767.574524,710.689575 773.223633,711.736877 777.614807,715.852173 
	C784.277344,722.096191 792.918396,726.421204 796.553162,735.648132 
	C797.413757,737.832886 799.807800,738.889465 801.908997,739.955627 
	C806.363403,742.215820 810.768860,744.532593 814.562683,747.880615 
	C817.833618,750.767212 821.596375,750.227478 825.436951,749.171387 
	C828.805664,748.245178 832.316772,747.055054 835.179199,751.060181 
z"/>
<path fill="#000000" opacity="1.000000" stroke="none" 
	d="
M473.581329,301.504852 
	C466.624481,298.433868 459.995209,295.555634 454.108032,291.315948 
	C461.503998,292.391968 531.151672,323.178345 535.645386,327.507690 
	C515.411621,318.067322 494.399536,310.523743 473.581329,301.504852 
z"/>
<path fill="#000000" opacity="1.000000" stroke="none" 
	d="
M701.026062,486.013611 
	C701.425171,480.106964 705.627502,475.831848 707.788452,470.668518 
	C712.782959,458.735199 718.220947,446.994843 722.177734,434.647278 
	C722.313477,434.223663 722.762268,433.900330 723.102478,433.484589 
	C724.846252,439.454987 709.937378,475.415100 701.277954,485.807800 
	C700.998657,485.994049 701.026062,486.013611 701.026062,486.013611 
z"/>
<path fill="#000000" opacity="1.000000" stroke="none" 
	d="
M700.987000,485.981567 
	C696.901550,497.281067 689.040588,506.197113 682.057800,515.648560 
	C680.079468,518.326355 678.352722,521.441284 674.653687,522.556763 
	C683.026550,510.316132 691.147095,497.926331 700.744629,486.195709 
	C701.026062,486.013611 700.998657,485.994049 700.987000,485.981567 
z"/>
<path fill="#000000" opacity="1.000000" stroke="none" 
	d="
M505.440979,122.238098 
	C504.531494,121.453049 503.338684,120.189148 505.251221,120.434532 
	C507.941711,120.779716 510.724640,121.649956 513.525818,124.490189 
	C510.080383,124.802917 508.011292,123.058464 505.440979,122.238098 
z"/>
<path fill="#000000" opacity="1.000000" stroke="none" 
	d="
M368.117432,764.070557 
	C369.715332,769.978943 368.603149,775.479736 367.662720,780.821350 
	C366.122040,789.572937 354.167999,795.796875 345.434998,794.645752 
	C334.031555,793.142700 330.795563,785.381714 329.004303,776.221802 
	C326.503326,763.432922 327.670441,750.733826 331.556152,738.327271 
	C333.701294,731.478210 337.628937,725.804382 343.563110,721.595764 
	C348.635101,717.998657 354.123871,716.406677 359.979218,719.048340 
	C366.227844,721.867249 369.185242,727.263611 368.991821,733.934021 
	C368.747406,742.362854 370.168701,750.891907 367.637299,759.231873 
	C367.239136,760.543762 367.887482,762.173218 368.117432,764.070557 
z"/>
<path fill="#000000" opacity="1.000000" stroke="none" 
	d="
M458.006226,742.110229 
	C452.065674,742.122131 446.623383,742.122131 440.603455,742.122131 
	C441.988403,732.153748 444.410034,723.249451 452.456177,717.289734 
	C457.663208,713.432922 463.874084,712.265869 469.917664,715.258911 
	C476.461182,718.499451 479.752869,724.729736 479.842590,731.539490 
	C479.998322,743.356262 483.289917,742.320862 469.987396,742.160156 
	C466.160065,742.113953 462.332123,742.117615 458.006226,742.110229 
z"/>
</svg>